<svg class="icon" xmlns="http://www.w3.org/2000/svg" viewBox="0 0 64 64">
	<defs><style>.cls-1{fill-rule:evenodd;}</style></defs><title>CCOJ</title><path class="cls-1" fill="#999999" d="M32,0A32,32,0,1,0,64,32,32,32,0,0,0,32,0Zm0,60.57A28.55,28.55,0,1,1,60.55,32,28.55,28.55,0,0,1,32,60.55Z"/><polygon class="cls-1" fill="#999999" points="30.39 60.39 30.45 47 20.7 49.34 22.5 44.37 7.89 32.54 11.18 31.01 8.3 22.13 16.71 23.91 18.34 20.08 24.91 27.13 21.74 10.79 26.82 13.73 31.97 3.61 37.12 13.73 42.2 10.79 39.03 27.13 45.6 20.08 47.23 23.91 55.64 22.13 52.76 31.01 56.05 32.54 41.44 44.37 43.24 49.34 33.49 47 33.55 60.39 30.39 60.39"/>
</svg>