<?xml version="1.0" encoding="utf-8"?>
<!-- Generator: Adobe Illustrator 22.0.1, SVG Export Plug-In . SVG Version: 6.00 Build 0)  -->
<svg version="1.1" id="Layer_1" xmlns="http://www.w3.org/2000/svg" xmlns:xlink="http://www.w3.org/1999/xlink" x="0px" y="0px"
	 viewBox="0 0 566.9 425.2" style="enable-background:new 0 0 566.9 425.2;" xml:space="preserve">
<style type="text/css">
	.st0{fill:#FCDB05;}
	.st1{fill:none;stroke:#000000;stroke-width:0.8;stroke-miterlimit:10.0375;}
</style>
<circle cx="283.3" cy="212.6" r="122.1"/>
<g id="page1">
	<path class="st0" d="M281.9,107.8c-53.7,0.1-107.5,46-103,113.3c3.3,48.5,46.7,100.8,113.5,95.9c50.5-3.7,96.9-47.6,95.9-106.4
		C387.4,153.5,339.6,106.6,281.9,107.8 M283.7,325.6c-61.6,1-113.8-51.2-113.4-113.3c0.4-62.7,51.4-113.7,114.3-112.8
		c62.1,0.9,112.5,49.2,112.1,114.9C396.2,275.3,346.3,325.8,283.7,325.6L283.7,325.6z M300.6,217.9c7.2,10.1,15.6,18.8,23.6,27.9
		c9.1,10.3,9.2,10.2-1.9,18c-3.6,2.5-7.1,5.1-10.4,7.9c-3.1,2.6-5.2,3.2-7.5-1.2c-6.4-12.4-21.5-38.5-22.9-38.2
		c-1.4,0.2-16.2,26.4-23.1,38.5c-2.3,4-4,3.4-7,1c-5.4-4.4-10.9-8.8-16.7-12.5c-3.7-2.4-3.8-4-1-7.1c9.1-10.1,28.4-32.6,29.6-34.2
		c-14.3-3-28.1-5.9-41.9-8.6c-5.2-1-6.9-2.2-4.6-8.4c2.2-5.8,5.2-11.6,5.8-17.9c0.5-5.6,3.2-5.7,7.2-3.9
		c12.4,5.6,38.7,17.3,40.2,17.7c0.5-10.5-3.6-39.8-4.3-44.3c-0.5-3.3,0.6-4.7,4.2-4.6c7.3,0.3,14.6,0.5,21.9-0.1
		c5.6-0.5,6.5,2.1,5.7,6.4c-2.6,13.9-2.8,28-3.9,42.7c12.9-5.6,25.5-10.8,37.8-16.7c7-3.3,8.1-3.1,9.9,4c1.4,5.9,3.8,11.6,5.7,17.4
		c2,6-0.7,6.6-4.9,7.5C328.3,212.1,314.7,215,300.6,217.9"/>
	<path class="st1" d="M281.9,107.8c-53.7,0.1-107.5,46-103,113.3c3.3,48.5,46.8,100.8,113.5,95.9c50.5-3.7,96.9-47.6,95.9-106.4
		C387.4,153.5,339.6,106.6,281.9,107.8 M283.7,325.6c-61.6,1-113.8-51.2-113.4-113.3c0.4-62.7,51.4-113.7,114.3-112.8
		c62.1,0.9,112.5,49.2,112.1,114.9C396.2,275.3,346.3,325.8,283.7,325.6L283.7,325.6z M300.6,217.9c7.2,10.1,15.6,18.8,23.6,27.9
		c9.1,10.3,9.2,10.2-1.9,18c-3.6,2.5-7.1,5.1-10.4,7.9c-3.1,2.6-5.2,3.2-7.5-1.2c-6.4-12.4-21.5-38.5-22.9-38.2
		c-1.4,0.2-16.2,26.4-23.1,38.5c-2.3,4-4,3.4-7,1c-5.4-4.4-10.9-8.8-16.7-12.5c-3.7-2.4-3.8-4-1-7.1c9.1-10.1,28.4-32.6,29.6-34.2
		c-14.3-3-28.1-5.9-41.9-8.6c-5.2-1-6.9-2.2-4.6-8.4c2.2-5.8,5.2-11.6,5.8-17.9c0.5-5.6,3.2-5.7,7.2-3.9
		c12.4,5.6,38.7,17.3,40.2,17.7c0.5-10.5-3.6-39.8-4.3-44.3c-0.5-3.3,0.6-4.7,4.2-4.6c7.3,0.3,14.6,0.5,21.9-0.1
		c5.6-0.5,6.5,2.1,5.7,6.4c-2.6,13.9-2.8,28-3.9,42.7c12.9-5.6,25.5-10.8,37.8-16.7c7-3.3,8.1-3.1,9.9,4c1.4,5.9,3.8,11.6,5.7,17.4
		c2,6-0.7,6.6-4.9,7.5C328.3,212.1,314.7,215,300.6,217.9"/>
</g>
</svg>
